<?xml version="1.0" standalone="no"?>
<!DOCTYPE svg PUBLIC "-//W3C//DTD SVG 20010904//EN"
 "http://www.w3.org/TR/2001/REC-SVG-20010904/DTD/svg10.dtd">
<svg version="1.0" xmlns="http://www.w3.org/2000/svg"
 width="1084.000000pt" height="1084.000000pt" viewBox="0 0 1084.000000 1084.000000"
 preserveAspectRatio="xMidYMid meet">
<metadata>
Created by potrace 1.11, written by Peter Selinger 2001-2013
</metadata>
<g transform="translate(0.000000,1084.000000) scale(0.100000,-0.100000)"
fill="#000000" stroke="none">
<path d="M6070 10756 c-36 -18 -90 -48 -120 -66 -30 -18 -75 -44 -100 -58 -25
-14 -263 -151 -530 -305 -267 -153 -504 -290 -526 -303 -51 -29 -91 -74 -117
-134 -19 -43 -20 -65 -18 -700 5 -1240 10 -3217 11 -4100 2 -920 3 -881 -35
-1066 -24 -111 -102 -287 -181 -405 -43 -64 -165 -197 -223 -243 -35 -27 -179
-120 -226 -145 -22 -12 -47 -26 -55 -31 -16 -10 -153 -89 -380 -220 -80 -46
-183 -106 -230 -133 -47 -28 -110 -63 -140 -80 -74 -40 -125 -90 -150 -149
-23 -54 -23 -30 -21 -1056 2 -494 3 -526 21 -576 37 -98 26 -90 580 -411 140
-82 269 -156 285 -165 17 -10 125 -72 240 -140 413 -242 378 -224 465 -225 56
0 85 5 115 21 39 19 564 323 905 522 263 155 481 315 734 542 113 101 330 325
426 440 30 36 58 67 61 70 33 27 307 417 363 515 9 17 33 57 52 90 217 371
414 920 474 1320 7 44 14 88 16 99 2 10 6 44 9 75 4 31 8 67 10 80 21 130 23
740 12 4363 -5 1595 -6 1637 -25 1680 -39 87 -40 88 -787 518 -92 54 -463 270
-541 316 -137 81 -170 94 -244 94 -54 0 -76 -6 -130 -34z m616 -831 c133 -77
251 -147 264 -155 22 -15 13 -21 -291 -197 -173 -99 -336 -193 -364 -208 l-50
-28 -115 68 c-63 38 -124 73 -135 79 -11 6 -131 76 -267 155 -220 128 -270
161 -239 161 5 0 87 45 182 101 96 56 192 111 214 124 22 12 102 59 178 103
l139 80 121 -71 c67 -39 231 -134 363 -212z m-1046 -868 c178 -103 327 -192
330 -198 7 -10 11 -1223 13 -3819 2 -1560 1 -1639 -17 -1720 -65 -299 -209
-542 -421 -710 -69 -55 -137 -96 -593 -359 l-333 -192 -385 223 c-211 123
-384 225 -384 228 0 3 43 30 96 60 166 95 175 100 334 193 365 212 573 422
736 743 72 141 140 334 159 448 3 17 8 38 10 46 6 19 12 61 21 135 8 57 7
1181 0 3948 l-4 1227 57 -32 c31 -17 202 -117 381 -221z m1616 -1578 c10
-3293 9 -3502 -10 -3605 -2 -11 -7 -46 -11 -79 -4 -33 -9 -69 -11 -80 -2 -11
-5 -33 -8 -50 -8 -54 -17 -99 -27 -145 -6 -25 -13 -54 -15 -65 -2 -11 -6 -29
-8 -40 -10 -46 -67 -237 -96 -320 -212 -609 -639 -1213 -1179 -1665 -29 -25
-59 -50 -65 -55 -26 -25 -178 -137 -266 -196 -80 -55 -197 -125 -343 -208 -18
-10 -96 -55 -174 -100 -77 -44 -143 -81 -145 -81 -3 0 -5 179 -7 398 l-2 397
426 245 c245 141 469 277 528 321 381 285 619 707 682 1209 10 82 12 329 9
1130 -2 564 -4 1779 -6 2700 l-3 1675 360 207 c197 114 361 206 362 204 2 -2
6 -811 9 -1797z m-3618 -5483 c32 -19 140 -83 242 -142 102 -59 199 -115 215
-125 17 -10 39 -23 50 -28 11 -6 60 -34 110 -63 l89 -53 2 -398 c1 -218 1
-397 -1 -397 -4 0 -297 169 -310 180 -5 4 -35 21 -65 37 -30 17 -107 61 -170
98 -63 37 -135 79 -160 93 -25 13 -50 29 -56 33 -12 10 -19 799 -8 799 3 0 31
-15 62 -34z"/>
</g>
</svg>
